<svg xmlns="http://www.w3.org/2000/svg" version="1.1" viewBox="0 0 100.0 100.0" fill="#ffffff">
 <path d="m94.711 94.051c0 0.61328-0.49609 1.1094-1.1094 1.1094l-87.199 0.003906c-0.61328 0-1.1094-0.49609-1.1094-1.1094 0-0.61328 0.49609-1.1094 1.1094-1.1094h4.0664l1.7305-3.1094h21.605c0.61328 0 1.1094-0.49609 1.1094-1.1094 0-0.61328-0.49609-1.1094-1.1094-1.1094l-20.367-0.003907 2.1406-3.8438h12.414c0.61328 0 1.1094-0.49609 1.1094-1.1094 0-0.61328-0.49609-1.1094-1.1094-1.1094h-11.18l2.1406-3.8438h4.875c0.61328 0 1.1094-0.49609 1.1094-1.1094 0-0.61328-0.49609-1.1094-1.1094-1.1094h-3.6367l1.918-3.4414h1.0977c0.61328 0 1.1094-0.49609 1.1094-1.1094 0-0.57031-0.43359-1.0195-0.98438-1.0859l9.7812-17.559c0.082031-0.14453 0.21484-0.16797 0.28516-0.16797 0.070312 0 0.20312 0.023438 0.28516 0.16797l22.648 40.66h2.543l-13.324-23.922 3.1641-3.7812c0.21875-0.26172 0.52344-0.41016 0.86328-0.42188 0.33984 0.011719 0.65625 0.11328 0.89453 0.35938l2.5469 2.625c0.67969 0.69922 1.6328 1.0703 2.6055 1.0312 0.97656-0.046875 1.8867-0.50781 2.4961-1.2695l1.8008-2.2422c0.21875-0.26953 0.52734-0.42578 0.875-0.44141 0.34766-0.003906 0.66797 0.11719 0.90625 0.36719l2.4727 2.5977c0.65625 0.69141 1.5469 1.0508 2.5391 1.0586 0.95312-0.019531 1.8633-0.44141 2.4922-1.1602l2.4023-2.7422c0.42188-0.48047 1.1641-0.53516 1.6523-0.125l5.6133 4.7148 2.75 5.8945h-2.5703c-0.61328 0-1.1094 0.49609-1.1094 1.1094s0.49609 1.1094 1.1094 1.1094h3.6094l1.793 3.8438h-9.6055c-0.61328 0-1.1094 0.49609-1.1094 1.1094s0.49609 1.1094 1.1094 1.1094h10.645l1.793 3.8438h-18.215c-0.61328 0-1.1094 0.49609-1.1094 1.1094s0.49609 1.1094 1.1094 1.1094h19.254l1.4492 3.1094h3.8203c0.61328 0 1.1094 0.49609 1.1094 1.1094zm-55.078-35.664 4.7656 8.5547 2.6172-3.1289c0.61719-0.73828 1.5234-1.1836 2.4883-1.2188 0.97266-0.050781 1.8984 0.33984 2.5703 1.0312l2.5469 2.625c0.23828 0.24609 0.55078 0.375 0.90625 0.35938 0.34375-0.015625 0.65234-0.17188 0.86719-0.44141l1.8008-2.2422c0.61328-0.76562 1.5312-1.2305 2.5117-1.2734 0.98047-0.042969 1.9336 0.34375 2.6094 1.0547l2.4727 2.5977c0.23047 0.24219 0.55078 0.35937 0.88281 0.36719 0.33594-0.007813 0.64453-0.14844 0.86719-0.40234l2.4023-2.7422c1.2109-1.3828 3.3438-1.5469 4.7539-0.36328l1.9531 1.6406-17.57-37.645v-21.211c0-0.61328-0.49609-1.1094-1.1094-1.1094s-1.1094 0.49609-1.1094 1.1094v0.53906h-12.641c-0.44531 0-0.84766 0.26562-1.0195 0.67188-0.17578 0.40625-0.089844 0.88281 0.21484 1.2031l3.25 3.4219-3.25 3.4219c-0.30469 0.32422-0.39062 0.79688-0.21484 1.2031s0.57812 0.67188 1.0195 0.67188h11.566v-8.5742h1.0781v18.965l-17.223 30.914z"/>
</svg>